<svg width="24" height="24" viewBox="0 0 24 24" fill="none" xmlns="http://www.w3.org/2000/svg">
<path fill-rule="evenodd" clip-rule="evenodd" d="M6.85963 9.35545C7.07701 9.00286 7.53906 8.89326 7.89165 9.11064L10.8183 10.915C11.5428 11.3617 12.4571 11.3617 13.1815 10.915L16.1082 9.11064C16.4608 8.89326 16.9228 9.00286 17.1402 9.35545C17.3576 9.70804 17.248 10.1701 16.8954 10.3875L13.9687 12.1919C12.7617 12.936 11.2382 12.936 10.0311 12.1919L7.10444 10.3875C6.75186 10.1701 6.64225 9.70804 6.85963 9.35545Z" fill="#282828"/>
<path fill-rule="evenodd" clip-rule="evenodd" d="M2.24634 7.99707C2.24634 5.926 3.92527 4.24707 5.99634 4.24707H18.0038C20.0749 4.24707 21.7538 5.926 21.7538 7.99707V16.0029C21.7538 18.074 20.0749 19.7529 18.0038 19.7529H5.99634C3.92527 19.7529 2.24634 18.074 2.24634 16.0029V7.99707ZM5.99634 5.74707C4.7537 5.74707 3.74634 6.75443 3.74634 7.99707V16.0029C3.74634 17.2455 4.7537 18.2529 5.99634 18.2529H18.0038C19.2465 18.2529 20.2538 17.2455 20.2538 16.0029V7.99707C20.2538 6.75443 19.2465 5.74707 18.0038 5.74707H5.99634Z" fill="#282828"/>
</svg>
